<svg id="Capa_1" enable-background="new 0 0 512 512" height="512" viewBox="0 0 512 512" width="512" xmlns="http://www.w3.org/2000/svg"><g><path d="m512 395.875v-395.875h-512v395.875h166.648l-23.022 86.125h-68.407v30h361.562v-30h-68.407l-23.022-86.125zm-482-365.875h452v335.875h-452zm307.321 452h-162.642l23.022-86.125h116.598z"/><path d="m165.369 118.111h-69.647v-30.05h-30v33.428c0 29.989 13.728 57.882 36.356 76.258-22.491 18.378-36.128 46.181-36.128 76.068v33.432h30v-30.05h69.192v30.05h30v-33.432c0-29.887-13.638-57.69-36.129-76.069 22.628-18.376 36.356-46.269 36.356-76.258v-33.426h-30zm-34.824 96.371c13.2 7.478 23.372 19.07 29.17 32.715h-58.339c5.798-13.646 15.97-25.237 29.169-32.715zm.001-33.532c-13.309-7.473-23.565-19.117-29.395-32.839h58.79c-5.831 13.723-16.087 25.367-29.395 32.839z"/><path d="m269.726 73.062h176.552v30h-176.552z"/><path d="m269.726 146.124h176.552v30h-176.552z"/><path d="m269.726 219.186h176.552v30h-176.552z"/><path d="m269.726 292.247h176.552v30h-176.552z"/></g></svg>